<?xml version="1.0" encoding="utf-8"?>
<!-- Generator: Adobe Illustrator 16.0.0, SVG Export Plug-In . SVG Version: 6.00 Build 0)  -->
<!DOCTYPE svg PUBLIC "-//W3C//DTD SVG 1.1//EN" "http://www.w3.org/Graphics/SVG/1.1/DTD/svg11.dtd">
<svg version="1.1" id="Layer_1" xmlns="http://www.w3.org/2000/svg" xmlns:xlink="http://www.w3.org/1999/xlink" x="0px" y="0px"
	 width="64px" height="64px" viewBox="0 0 64 64" enable-background="new 0 0 64 64" xml:space="preserve">
<g>
	<g>
		<path fill="#8C8C8C" d="M14.456,30.583c-7.811,0-14.165-6.354-14.165-14.165S6.645,2.253,14.456,2.253s14.165,6.355,14.165,14.165
			S22.266,30.583,14.456,30.583z M14.456,3.753c-6.984,0-12.665,5.682-12.665,12.665s5.682,12.665,12.665,12.665
			s12.665-5.681,12.665-12.665S21.438,3.753,14.456,3.753z"/>
	</g>
	<g>
		<path fill="#8C8C8C" d="M15.372,23.083c-0.218,0-0.434-0.094-0.582-0.275l-4.832-5.915C9.73,16.617,9.73,16.22,9.957,15.944
			l4.833-5.918c0.262-0.32,0.734-0.369,1.056-0.106c0.322,0.263,0.368,0.734,0.106,1.056l-4.445,5.444l4.445,5.44
			c0.262,0.321,0.215,0.793-0.106,1.055C15.706,23.028,15.538,23.083,15.372,23.083z"/>
	</g>
</g>
<g>
	<g>
		<path fill="#8C8C8C" d="M35.365,16.418c0-7.811,6.354-14.165,14.164-14.165c7.813,0,14.166,6.354,14.166,14.165
			s-6.354,14.165-14.166,14.165C41.719,30.583,35.365,24.229,35.365,16.418z M36.865,16.418c0,6.983,5.682,12.665,12.664,12.665
			c6.984,0,12.666-5.682,12.666-12.665S56.514,3.753,49.529,3.753C42.547,3.753,36.865,9.435,36.865,16.418z"/>
	</g>
	<g>
		<path fill="#8C8C8C" d="M48.615,23.083c0.217,0,0.434-0.094,0.58-0.275l4.834-5.915c0.225-0.276,0.227-0.673,0-0.949l-4.834-5.918
			c-0.262-0.32-0.732-0.369-1.055-0.106c-0.32,0.262-0.369,0.734-0.105,1.056l4.445,5.444l-4.445,5.44
			c-0.264,0.321-0.215,0.793,0.105,1.055C48.279,23.028,48.447,23.083,48.615,23.083z"/>
	</g>
</g>
<g>
	<g>
		<path fill="#8C8C8C" d="M0.021,46.377c0-7.811,6.354-14.166,14.165-14.166s14.165,6.355,14.165,14.166
			s-6.354,14.164-14.165,14.164S0.021,54.188,0.021,46.377z M26.853,46.377c0-6.984-5.682-12.666-12.665-12.666
			S1.521,39.393,1.521,46.377c0,6.982,5.682,12.664,12.665,12.664S26.853,53.359,26.853,46.377z"/>
	</g>
	<g>
		<path fill="#8C8C8C" d="M7.521,47.292c0-0.218,0.094-0.433,0.275-0.581l5.915-4.833c0.276-0.226,0.673-0.226,0.949-0.001
			l5.918,4.834c0.32,0.262,0.369,0.732,0.106,1.055c-0.263,0.322-0.734,0.369-1.056,0.107l-5.444-4.446l-5.44,4.445
			c-0.321,0.263-0.793,0.215-1.055-0.106C7.578,47.627,7.521,47.459,7.521,47.292z"/>
	</g>
</g>
<g>
	<g>
		<path fill="#8C8C8C" d="M49.814,32.211c7.811,0,14.164,6.354,14.164,14.164s-6.354,14.166-14.164,14.166
			s-14.166-6.355-14.166-14.166S42.004,32.211,49.814,32.211z M49.814,33.711c-6.984,0-12.666,5.682-12.666,12.664
			c0,6.984,5.682,12.666,12.666,12.666c6.982,0,12.664-5.682,12.664-12.666C62.479,39.393,56.797,33.711,49.814,33.711z"/>
	</g>
	<g>
		<path fill="#8C8C8C" d="M43.148,45.461c0,0.217,0.094,0.432,0.275,0.58l5.916,4.834c0.273,0.225,0.672,0.225,0.949,0l5.918-4.834
			c0.318-0.262,0.369-0.732,0.104-1.055c-0.262-0.32-0.732-0.369-1.055-0.107l-5.443,4.447l-5.439-4.445
			c-0.32-0.264-0.793-0.215-1.057,0.105C43.203,45.125,43.148,45.293,43.148,45.461z"/>
	</g>
</g>
</svg>
